HIERARCHY
ROOT Bip001_Pelvis
{
  OFFSET 7.937 94.8971 -8.5489
  CHANNELS 6 Xposition Yposition Zposition Zrotation Xrotation Yrotation
  JOINT Bip001_Spine
  {
    OFFSET 1.44608e-005 10.4157 -0.0118244
    CHANNELS 3 Zrotation Xrotation Yrotation
    JOINT Bip001_L_Thigh
    {
      OFFSET 11.2582 -10.4157 0.0118432
      CHANNELS 3 Zrotation Xrotation Yrotation
      JOINT Bip001_L_Calf
      {
        OFFSET -0.720717 -44.8687 0.366937
        CHANNELS 3 Zrotation Xrotation Yrotation
        JOINT Bip001_L_Foot
        {
          OFFSET -0.664439 -41.3745 -3.62995
          CHANNELS 3 Zrotation Xrotation Yrotation
          JOINT Bip001_L_Toe0
          {
            OFFSET 0.0541047 -10.4146 13.4033
            CHANNELS 3 Zrotation Xrotation Yrotation
            End Site
            {
              OFFSET -1.04503e-005 0 7.70137
            }
          }
        }
      }
    }
    JOINT Bip001_R_Thigh
    {
      OFFSET -11.2582 -10.4156 0.0118122
      CHANNELS 3 Zrotation Xrotation Yrotation
      JOINT Bip001_R_Calf
      {
        OFFSET 0.72059 -44.8687 0.36676
        CHANNELS 3 Zrotation Xrotation Yrotation
        JOINT Bip001_R_Foot
        {
          OFFSET 0.664321 -41.3745 -3.62979
          CHANNELS 3 Zrotation Xrotation Yrotation
          JOINT Bip001_R_Toe0
          {
            OFFSET -0.05417 -10.4146 13.4033
            CHANNELS 3 Zrotation Xrotation Yrotation
            End Site
            {
              OFFSET -1.04873e-005 0 7.70137
            }
          }
        }
      }
    }
    JOINT Bip001_Spine1
    {
      OFFSET 1.90638e-005 14.8539 1.10727
      CHANNELS 3 Zrotation Xrotation Yrotation
      JOINT Bip001_Spine2
      {
        OFFSET 2.28934e-005 14.7848 -1.7233
        CHANNELS 3 Zrotation Xrotation Yrotation
        JOINT Bip001_Neck
        {
          OFFSET 2.24514e-005 15.6905 -0.498826
          CHANNELS 3 Zrotation Xrotation Yrotation
          JOINT Bip001_L_Clavicle
          {
            OFFSET 6.17691 -0.000591152 0.00852867
            CHANNELS 3 Zrotation Xrotation Yrotation
            JOINT Bip001_L_UpperArm
            {
              OFFSET 11.773 -0.0611878 0.00197697
              CHANNELS 3 Zrotation Xrotation Yrotation
              JOINT Bip001_L_Forearm
              {
                OFFSET 26.4515 0.0817568 -2.19579
                CHANNELS 3 Zrotation Xrotation Yrotation
                JOINT Bip001_L_Hand
                {
                  OFFSET 32.8677 0.156744 1.67112
                  CHANNELS 3 Zrotation Xrotation Yrotation
                  JOINT Bip001_L_Finger0
                  {
                    OFFSET 6.16268 -2.25226 6.01674
                    CHANNELS 3 Zrotation Xrotation Yrotation
                    End Site
                    {
                      OFFSET 4.30499 -1.46662 0.618148
                    }
                  }
                  JOINT Bip001_L_Finger1
                  {
                    OFFSET 11.2957 -0.718374 -0.201963
                    CHANNELS 3 Zrotation Xrotation Yrotation
                    End Site
                    {
                      OFFSET 6.31952 -0.405163 -0.0802303
                    }
                  }
                }
              }
            }
          }
          JOINT Bip001_R_Clavicle
          {
            OFFSET -6.17691 -0.000574027 0.00851165
            CHANNELS 3 Zrotation Xrotation Yrotation
            JOINT Bip001_R_UpperArm
            {
              OFFSET -11.773 -0.0611516 0.00194365
              CHANNELS 3 Zrotation Xrotation Yrotation
              JOINT Bip001_R_Forearm
              {
                OFFSET -26.4514 0.0822334 -2.19736
                CHANNELS 3 Zrotation Xrotation Yrotation
                JOINT Bip001_R_Hand
                {
                  OFFSET -32.8677 0.156817 1.67144
                  CHANNELS 3 Zrotation Xrotation Yrotation
                  JOINT Bip001_R_Finger0
                  {
                    OFFSET -6.1627 -2.25224 6.0167
                    CHANNELS 3 Zrotation Xrotation Yrotation
                    End Site
                    {
                      OFFSET -4.30499 -1.46662 0.618134
                    }
                  }
                  JOINT Bip001_R_Finger1
                  {
                    OFFSET -11.2958 -0.718344 -0.201994
                    CHANNELS 3 Zrotation Xrotation Yrotation
                    End Site
                    {
                      OFFSET -6.31952 -0.405146 -0.0802475
                    }
                  }
                }
              }
            }
          }
          JOINT Bip001_Head
          {
            OFFSET 1.11782e-005 11.4912 2.09908
            CHANNELS 3 Zrotation Xrotation Yrotation
            End Site
            {
              OFFSET 2.95144e-005 21.2823 -2.83069e-005
            }
          }
        }
      }
    }
  }
}
MOTION
Frames:	5
Frame Time:	0.04
11.8254 94.6253 -7.37315 -1.5546 5.74658 32.3165 -1.82807 -0.441814 4.02216 -2.26898 -18.894 -3.50151 1.61401 19.3333 -18.0927 1.15656 -4.61079 -3.99452 0.654336 -10.4821 -2.06633 -8.3257 -0.391889 -14.6 0.730587 13.5189 -7.19193 1.24966 -11.8851 -19.1796 2.70865 -11.6675 -2.05105 -3.05636 -0.991911 8.05718 -3.05636 -0.991912 8.05718 -5.66131 -4.21497 -3.58133 -25.7695 6.96224 -3.59603 -44.5496 38.7913 9.50221 15.9491 7.15129 -25.0568 -9.01315 -0.427803 -2.29744 9.93923e-016 -1.59028e-015 -0 -7.95139e-016 -1.59028e-015 -0 -0.927088 4.68643 18.6179 12.2823 -27.2232 46.9484 -48.4401 12.3899 55.1299 -12.6233 6.73724 -12.1408 -9.93923e-016 3.18055e-015 6.4605e-015 1.98785e-016 0 1.12313e-014 3.26885 5.76596 -5.78 
11.9692 94.6488 -7.75621 -0.874756 5.11191 29.6471 -1.65982 -0.293541 3.88257 -2.30754 -17.9753 -3.12538 1.61478 19.1016 -16.6008 1.06499 -4.73115 -3.26068 0.627153 -10.3957 -1.82961 -9.25906 -0.725822 -14.4977 0.543844 14.0296 -6.32558 2.04663 -11.7085 -17.3496 2.04492 -11.619 -1.82831 -2.86096 -0.684812 7.77831 -2.86097 -0.684814 7.77836 -6.06275 -3.64953 -3.77074 -25.61 6.52462 -3.96079 -44.8657 40.5903 9.49943 14.9579 8.63897 -21.7971 -11.3992 -0.685738 -2.79783 3.97569e-016 0 -0 -1.98785e-016 0 -0 2.15124 4.7831 18.8752 16.5974 -27.266 48.5939 -48.3307 9.90556 66.5067 -11.5245 5.55657 -11.2371 9.93923e-016 6.36111e-015 1.27222e-014 -6.95746e-016 3.18056e-015 1.41137e-014 3.346 5.42199 -6.11403 
11.9724 94.729 -8.18639 -0.315291 4.40245 26.8561 -1.48029 -0.130209 3.56354 -1.80876 -17.1063 -2.5691 0.906352 18.7255 -13.7663 1.06362 -4.62316 -3.37276 0.588915 -10.3582 -1.74664 -9.85339 -1.26904 -14.0506 0.116475 14.3721 -5.14084 2.55654 -11.2649 -15.9873 1.61279 -11.6219 -1.5408 -2.6037 -0.342077 7.1429 -2.6037 -0.34208 7.1429 -6.42309 -3.69187 -3.67501 -25.5467 6.42044 -3.4265 -45.0809 40.8894 8.92659 13.8946 9.0587 -19.6847 -11.9551 -0.84468 -1.42234 9.93923e-017 0 9.93923e-016 3.97569e-016 -3.18056e-015 7.95139e-016 4.41062 5.27409 18.4993 22.7363 -24.8797 50.3823 -52.9088 9.21853 77.1875 -8.48428 4.70361 -11.3568 -9.93923e-016 -6.36111e-015 -2.5842e-015 3.97569e-016 -9.54167e-015 -3.18055e-015 3.33217 5.72957 -6.11561 
11.9385 94.8113 -8.60405 0.099392 3.72549 24.0371 -1.33297 0.0176815 3.19393 -1.21003 -16.3043 -0.917121 0.508863 18.3353 -12.3653 1.09546 -4.52938 -3.09557 0.569851 -10.3232 -1.69257 -10.3419 -1.9412 -13.2122 -0.0686397 14.6688 -4.12703 2.76153 -10.7622 -14.8332 1.33952 -11.6466 -1.2668 -2.38039 -0.0316026 6.40605 -2.3804 -0.0316025 6.40607 -6.64414 -3.12754 -3.71796 -25.4095 6.02144 -3.90803 -45.6939 39.4276 8.93592 12.4692 7.71892 -18.7667 -9.6393 -0.759224 0.841713 -1.04362e-015 0 -2.98177e-016 -1.56543e-015 -3.18056e-015 -5.96354e-016 7.22726 5.29509 18.1568 26.396 -19.3377 49.3365 -48.7188 6.93102 85.6455 -5.57227 6.3822 -11.2152 -9.54166e-015 -3.18055e-015 -7.95139e-016 -2.38542e-015 -3.18056e-015 -0 3.37913 5.57342 -6.26164 
11.873 94.8893 -9.00247 0.492537 2.89238 21.3533 -1.19744 0.21722 2.74296 -0.64003 -15.4429 0.258263 0.0580644 17.9995 -10.6827 1.07103 -4.4275 -2.6598 0.560324 -10.3187 -1.67478 -10.7645 -2.47391 -12.2222 -0.0745605 14.8621 -3.12483 2.81245 -10.247 -13.8094 1.09261 -11.6503 -1.07548 -2.17187 0.381922 5.50621 -2.17187 0.381926 5.50624 -6.77509 -2.61391 -3.57385 -25.0265 5.5982 -4.2043 -46.4039 38.8806 8.36517 11.4646 6.13854 -18.0115 -7.21589 -0.60465 1.89757 2.48481e-016 3.18055e-015 -3.97569e-016 3.47873e-016 3.18056e-015 -3.97569e-016 11.3697 5.74817 18.4857 25.1121 -10.7314 45.0163 -45.2015 4.33408 90.1991 -1.358 5.36237 -9.90222 7.95139e-016 0 4.77083e-015 2.38542e-015 -3.18056e-015 4.77083e-015 3.41743 5.09644 -6.19316 
